#Comment line ignore any data following # character 
#Hierarchical Translation and Rotation (.htr) file 
[Header]	
#Header keywords are followed by a single value 
FileType HTR		#Single word string
DataType HTRS		#Translation followed by rotation and scale data
FileVersion 1		#integer
NumSegments 84		#integer
NumFrames 2		#integer
DataFrameRate 30		#integer, data frame rate in this file
EulerRotationOrder ZYX
CalibrationUnits mm
RotationUnits Degrees
GlobalAxisofGravity Y
BoneLengthAxis Y
ScaleFactor 1.00
[SegmentNames&Hierarchy]
#CHILD	PARENT
MASTER GLOBAL
root MASTER
chest root
L_mid_tent01 root
R_mid_tent01 root
spine01 root
Bip01_Neck chest
L_humerus chest
R_humerus chest
weapon_bone chest
Bip01_Head Bip01_Neck
eye_left_bone Bip01_Head
eye_right_bone Bip01_Head
L_forearm L_humerus
L_front_hand L_forearm
L_weapon_bone L_forearm
L_front_hand01_01 L_front_hand
L_front_hand02_01 L_front_hand
L_front_hand03_01 L_front_hand
L_front_hand01_02 L_front_hand01_01
L_front_hand02_02 L_front_hand02_01
L_front_hand03_02 L_front_hand03_01
R_forearm R_humerus
R_front_hand R_forearm
R_weapon_bone R_forearm
R_front_hand01_01 R_front_hand
R_front_hand02_01 R_front_hand
R_front_hand03_01 R_front_hand
R_front_hand01_02 R_front_hand01_01
R_front_hand02_02 R_front_hand02_01
R_front_hand03_02 R_front_hand03_01
null_rope01_connect L_mid_tent01
Rope1_Seg01 null_rope01_connect
Rope1_Seg02 Rope1_Seg01
Rope1_Seg03 Rope1_Seg02
Rope1_Seg04 Rope1_Seg03
Rope1_Seg05 Rope1_Seg04
Rope1_Seg06 Rope1_Seg05
Rope1_Seg07 Rope1_Seg06
Rope1_Seg09 Rope1_Seg07
L_mid_hand01 Rope1_Seg09
L_mid_hand02 Rope1_Seg09
L_mid_hand03 Rope1_Seg09
null_rope02_connect R_mid_tent01
Rope2_Seg01 null_rope02_connect
Rope2_Seg02 Rope2_Seg01
Rope2_Seg03 Rope2_Seg02
Rope2_Seg04 Rope2_Seg03
Rope2_Seg05 Rope2_Seg04
Rope2_Seg06 Rope2_Seg05
Rope2_Seg07 Rope2_Seg06
Rope2_Seg09 Rope2_Seg07
R_mid_hand01 Rope2_Seg09
R_mid_hand02 Rope2_Seg09
R_mid_hand03 Rope2_Seg09
spine02 spine01
spine03 spine02
pelvis spine03
null_rope03_connect pelvis
null_rope04_connect pelvis
Rope3_Seg01 null_rope03_connect
Rope3_Seg02 Rope3_Seg01
Rope3_Seg03 Rope3_Seg02
Rope3_Seg04 Rope3_Seg03
Rope3_Seg05 Rope3_Seg04
Rope3_Seg06 Rope3_Seg05
Rope3_Seg07 Rope3_Seg06
Rope3_Seg08 Rope3_Seg07
Rope3_Seg09 Rope3_Seg08
R_rear_hand01 Rope3_Seg09
R_rear_hand02 Rope3_Seg09
R_rear_hand03 Rope3_Seg09
Rope4_Seg01 null_rope04_connect
Rope4_Seg02 Rope4_Seg01
Rope4_Seg03 Rope4_Seg02
Rope4_Seg04 Rope4_Seg03
Rope4_Seg05 Rope4_Seg04
Rope4_Seg06 Rope4_Seg05
Rope4_Seg07 Rope4_Seg06
Rope4_Seg08 Rope4_Seg07
Rope4_Seg09 Rope4_Seg08
L_rear_hand01 Rope4_Seg09
L_rear_hand02 Rope4_Seg09
L_rear_hand03 Rope4_Seg09
[BasePosition]
#SegmentName Tx, Ty, Tz, Rx, Ry, Rz, BoneLength
MASTER 0.000000 0.000000 0.000000 -90.000000 0.000000 0.000000 10.000000 
root 0.000000 0.000000 0.000000 0.000000 0.000000 0.000000 10.000000 
chest 0.000000 0.000000 0.000000 0.000000 0.000000 0.000000 10.000000 
L_mid_tent01 0.000000 0.000000 0.000000 0.000000 0.000000 0.000000 10.000000 
R_mid_tent01 0.000000 0.000000 0.000000 0.000000 0.000000 0.000000 10.000000 
spine01 0.000000 0.000000 0.000000 0.000000 0.000000 0.000000 10.000000 
Bip01_Neck 0.000000 0.000000 0.000000 0.000000 0.000000 0.000000 10.000000 
L_humerus 0.000000 0.000000 0.000000 0.000000 0.000000 0.000000 10.000000 
R_humerus 0.000000 0.000000 0.000000 0.000000 0.000000 0.000000 10.000000 
weapon_bone 0.000000 0.000000 0.000000 0.000000 0.000000 0.000000 10.000000 
Bip01_Head 0.000000 0.000000 0.000000 0.000000 0.000000 0.000000 10.000000 
eye_left_bone 0.000000 0.000000 0.000000 0.000000 0.000000 0.000000 10.000000 
eye_right_bone 0.000000 0.000000 0.000000 0.000000 0.000000 0.000000 10.000000 
L_forearm 0.000000 0.000000 0.000000 0.000000 0.000000 0.000000 10.000000 
L_front_hand 0.000000 0.000000 0.000000 0.000000 0.000000 0.000000 10.000000 
L_weapon_bone 0.000000 0.000000 0.000000 0.000000 0.000000 0.000000 10.000000 
L_front_hand01_01 0.000000 0.000000 0.000000 0.000000 0.000000 0.000000 10.000000 
L_front_hand02_01 0.000000 0.000000 0.000000 0.000000 0.000000 0.000000 10.000000 
L_front_hand03_01 0.000000 0.000000 0.000000 0.000000 0.000000 0.000000 10.000000 
L_front_hand01_02 0.000000 0.000000 0.000000 0.000000 0.000000 0.000000 10.000000 
L_front_hand02_02 0.000000 0.000000 0.000000 0.000000 0.000000 0.000000 10.000000 
L_front_hand03_02 0.000000 0.000000 0.000000 0.000000 0.000000 0.000000 10.000000 
R_forearm 0.000000 0.000000 0.000000 0.000000 0.000000 0.000000 10.000000 
R_front_hand 0.000000 0.000000 0.000000 0.000000 0.000000 0.000000 10.000000 
R_weapon_bone 0.000000 0.000000 0.000000 0.000000 0.000000 0.000000 10.000000 
R_front_hand01_01 0.000000 0.000000 0.000000 0.000000 0.000000 0.000000 10.000000 
R_front_hand02_01 0.000000 0.000000 0.000000 0.000000 0.000000 0.000000 10.000000 
R_front_hand03_01 0.000000 0.000000 0.000000 0.000000 0.000000 0.000000 10.000000 
R_front_hand01_02 0.000000 0.000000 0.000000 0.000000 0.000000 0.000000 10.000000 
R_front_hand02_02 0.000000 0.000000 0.000000 0.000000 0.000000 0.000000 10.000000 
R_front_hand03_02 0.000000 0.000000 0.000000 0.000000 0.000000 0.000000 10.000000 
null_rope01_connect 0.000000 0.000000 0.000000 0.000000 0.000000 0.000000 10.000000 
Rope1_Seg01 0.000000 0.000000 0.000000 0.000000 0.000000 0.000000 10.000000 
Rope1_Seg02 0.000000 0.000000 0.000000 0.000000 0.000000 0.000000 10.000000 
Rope1_Seg03 0.000000 0.000000 0.000000 0.000000 0.000000 0.000000 10.000000 
Rope1_Seg04 0.000000 0.000000 0.000000 0.000000 0.000000 0.000000 10.000000 
Rope1_Seg05 0.000000 0.000000 0.000000 0.000000 0.000000 0.000000 10.000000 
Rope1_Seg06 0.000000 0.000000 0.000000 0.000000 0.000000 0.000000 10.000000 
Rope1_Seg07 0.000000 0.000000 0.000000 0.000000 0.000000 0.000000 10.000000 
Rope1_Seg09 0.000000 0.000000 0.000000 0.000000 0.000000 0.000000 10.000000 
L_mid_hand01 0.000000 0.000000 0.000000 0.000000 0.000000 0.000000 10.000000 
L_mid_hand02 0.000000 0.000000 0.000000 0.000000 0.000000 0.000000 10.000000 
L_mid_hand03 0.000000 0.000000 0.000000 0.000000 0.000000 0.000000 10.000000 
null_rope02_connect 0.000000 0.000000 0.000000 0.000000 0.000000 0.000000 10.000000 
Rope2_Seg01 0.000000 0.000000 0.000000 0.000000 0.000000 0.000000 10.000000 
Rope2_Seg02 0.000000 0.000000 0.000000 0.000000 0.000000 0.000000 10.000000 
Rope2_Seg03 0.000000 0.000000 0.000000 0.000000 0.000000 0.000000 10.000000 
Rope2_Seg04 0.000000 0.000000 0.000000 0.000000 0.000000 0.000000 10.000000 
Rope2_Seg05 0.000000 0.000000 0.000000 0.000000 0.000000 0.000000 10.000000 
Rope2_Seg06 0.000000 0.000000 0.000000 0.000000 0.000000 0.000000 10.000000 
Rope2_Seg07 0.000000 0.000000 0.000000 0.000000 0.000000 0.000000 10.000000 
Rope2_Seg09 0.000000 0.000000 0.000000 0.000000 0.000000 0.000000 10.000000 
R_mid_hand01 0.000000 0.000000 0.000000 0.000000 0.000000 0.000000 10.000000 
R_mid_hand02 0.000000 0.000000 0.000000 0.000000 0.000000 0.000000 10.000000 
R_mid_hand03 0.000000 0.000000 0.000000 0.000000 0.000000 0.000000 10.000000 
spine02 0.000000 0.000000 0.000000 0.000000 0.000000 0.000000 10.000000 
spine03 0.000000 0.000000 0.000000 0.000000 0.000000 0.000000 10.000000 
pelvis 0.000000 0.000000 0.000000 0.000000 0.000000 0.000000 10.000000 
null_rope03_connect 0.000000 0.000000 0.000000 0.000000 0.000000 0.000000 10.000000 
null_rope04_connect 0.000000 0.000000 0.000000 0.000000 0.000000 0.000000 10.000000 
Rope3_Seg01 0.000000 0.000000 0.000000 0.000000 0.000000 0.000000 10.000000 
Rope3_Seg02 0.000000 0.000000 0.000000 0.000000 0.000000 0.000000 10.000000 
Rope3_Seg03 0.000000 0.000000 0.000000 0.000000 0.000000 0.000000 10.000000 
Rope3_Seg04 0.000000 0.000000 0.000000 0.000000 0.000000 0.000000 10.000000 
Rope3_Seg05 0.000000 0.000000 0.000000 0.000000 0.000000 0.000000 10.000000 
Rope3_Seg06 0.000000 0.000000 0.000000 0.000000 0.000000 0.000000 10.000000 
Rope3_Seg07 0.000000 0.000000 0.000000 0.000000 0.000000 0.000000 10.000000 
Rope3_Seg08 0.000000 0.000000 0.000000 0.000000 0.000000 0.000000 10.000000 
Rope3_Seg09 0.000000 0.000000 0.000000 0.000000 0.000000 0.000000 10.000000 
R_rear_hand01 0.000000 0.000000 0.000000 0.000000 0.000000 0.000000 10.000000 
R_rear_hand02 0.000000 0.000000 0.000000 0.000000 0.000000 0.000000 10.000000 
R_rear_hand03 0.000000 0.000000 0.000000 0.000000 0.000000 0.000000 10.000000 
Rope4_Seg01 0.000000 0.000000 0.000000 0.000000 0.000000 0.000000 10.000000 
Rope4_Seg02 0.000000 0.000000 0.000000 0.000000 0.000000 0.000000 10.000000 
Rope4_Seg03 0.000000 0.000000 0.000000 0.000000 0.000000 0.000000 10.000000 
Rope4_Seg04 0.000000 0.000000 0.000000 0.000000 0.000000 0.000000 10.000000 
Rope4_Seg05 0.000000 0.000000 0.000000 0.000000 0.000000 0.000000 10.000000 
Rope4_Seg06 0.000000 0.000000 0.000000 0.000000 0.000000 0.000000 10.000000 
Rope4_Seg07 0.000000 0.000000 0.000000 0.000000 0.000000 0.000000 10.000000 
Rope4_Seg08 0.000000 0.000000 0.000000 0.000000 0.000000 0.000000 10.000000 
Rope4_Seg09 0.000000 0.000000 0.000000 0.000000 0.000000 0.000000 10.000000 
L_rear_hand01 0.000000 0.000000 0.000000 0.000000 0.000000 0.000000 10.000000 
L_rear_hand02 0.000000 0.000000 0.000000 0.000000 0.000000 0.000000 10.000000 
L_rear_hand03 0.000000 0.000000 0.000000 0.000000 0.000000 0.000000 10.000000 
#Beginning of Data. Separated by tabs
#Fr	Tx	Ty	Tz	Rx	Ry	Rz	SF
[MASTER]
13 -163.679840 1247.804688 1085.243164 0.001660 0.001660 0.001660 1661.794312
14 -152.492737 1403.864990 1198.699951 0.001660 0.001660 0.001660 1852.288452
[root]
13 45.935810 48.835907 791.011658 -92.732704 6.766011 -93.083542 793.847839
14 31.688433 60.887753 736.750183 -94.065651 2.086837 -91.908562 739.940735
[chest]
13 -84.512650 -34.090519 0.000000 7.221535 10.912862 149.925171 91.129311
14 -84.512650 -34.090519 0.000000 7.229552 11.281457 148.485626 91.129311
[L_mid_tent01]
13 27.299139 22.179062 -249.918701 -0.118931 19.796282 79.976913 252.381683
14 27.299141 22.179058 -249.918701 -0.097130 19.550123 80.391197 252.381683
[R_mid_tent01]
13 23.228794 24.509907 226.238495 163.727188 -24.201706 67.506508 228.744751
14 23.228794 24.509907 226.238495 160.544830 -25.596460 67.235527 228.744751
[spine01]
13 -0.361383 -0.195265 0.000000 -0.000001 -0.000007 22.052340 0.410763
14 -0.361383 -0.195265 0.000000 -0.000001 -0.000007 22.052340 0.410763
[Bip01_Neck]
13 165.484543 71.581718 0.000119 176.643677 -1.657967 43.431911 180.302734
14 165.484543 71.581718 0.000119 176.643677 -1.657967 43.431911 180.302734
[L_humerus]
13 -13.983130 -135.272980 -120.471481 121.718277 81.390640 -147.498489 181.680161
14 -13.983130 -135.272980 -120.471481 138.211868 78.224884 -130.763168 181.680161
[R_humerus]
13 -13.983309 -135.273102 125.287651 -173.269745 -56.687870 -91.495453 184.909012
14 -13.983309 -135.273102 125.287651 -173.821976 -50.990417 -90.811676 184.909012
[weapon_bone]
13 235.964890 -300.705902 0.000000 0.000000 -89.951546 -128.212341 382.234833
14 235.964890 -300.705902 0.000000 0.000000 -89.951546 -128.212341 382.234833
[Bip01_Head]
13 213.326874 186.042328 7.559204 4.962490 2.797846 -43.898743 283.155853
14 213.329422 186.031021 7.641220 4.962490 2.797846 -43.898743 283.152557
[eye_left_bone]
13 -24.626970 125.451866 -64.772606 0.000000 -90.000000 -99.840431 143.318359
14 -24.626970 125.451866 -64.772606 0.000000 -90.000000 -99.840431 143.318359
[eye_right_bone]
13 -24.626970 125.451866 64.327362 0.000000 -89.965736 80.156380 143.117676
14 -24.626970 125.451866 64.327362 0.000000 -89.965736 80.156380 143.117676
[L_forearm]
13 322.776093 0.000000 -0.000119 0.000403 -0.002312 -109.771027 322.776093
14 322.776093 0.000000 -0.000119 0.000401 -0.002313 -109.680305 322.776093
[L_front_hand]
13 241.149185 -0.042021 -3.300071 136.107178 -1.837679 -27.424877 241.171753
14 241.149185 -0.042021 -3.300071 108.422577 -1.837395 -27.423840 241.171753
[L_weapon_bone]
13 156.183838 0.000000 0.000000 0.000014 0.000007 0.000001 156.183838
14 156.183838 0.000000 0.000000 0.000014 0.000007 0.000001 156.183838
[L_front_hand01_01]
13 86.095154 20.947098 -0.655860 -0.281026 -0.528937 65.755089 88.609184
14 86.095154 20.947098 -0.655860 -0.289102 -0.524108 66.611076 88.609184
[L_front_hand02_01]
13 86.935165 -11.437475 24.513514 141.611877 -54.742973 -46.215725 91.046425
14 86.935165 -11.437475 24.513514 142.580521 -55.269005 -47.395390 91.046425
[L_front_hand03_01]
13 86.637497 -14.123976 -20.424902 -141.973572 52.970387 -48.259937 90.126129
14 86.637497 -14.123976 -20.424902 -142.879883 53.494282 -49.391994 90.126129
[L_front_hand01_02]
13 71.020905 -0.000179 0.000030 0.000312 -0.002326 -105.294807 71.020905
14 71.020905 -0.000179 0.000030 0.000309 -0.002327 -105.139183 71.020905
[L_front_hand02_02]
13 71.020927 -0.000119 0.000060 0.000312 -0.002326 -105.294807 71.020927
14 71.020927 -0.000119 0.000060 0.000309 -0.002327 -105.139183 71.020927
[L_front_hand03_02]
13 71.020905 -0.000060 0.000060 0.000312 -0.002326 -105.294807 71.020905
14 71.020905 -0.000060 0.000060 0.000309 -0.002327 -105.139183 71.020905
[R_forearm]
13 322.776428 -0.000060 0.000030 0.201757 0.066222 -108.666634 322.776428
14 322.776428 -0.000060 0.000030 0.201792 0.066114 -108.605743 322.776428
[R_front_hand]
13 238.847015 -0.006795 2.210259 65.494179 -10.644073 -26.314222 238.857239
14 238.847015 -0.006795 2.210259 107.182472 -10.645043 -26.315655 238.857239
[R_weapon_bone]
13 155.664093 0.002503 -0.000030 0.003487 0.001180 -90.988930 155.664078
14 155.664093 0.002503 -0.000030 0.003487 0.001180 -90.988930 155.664078
[R_front_hand01_01]
13 87.624611 14.231146 22.918642 -139.165222 -53.267780 43.295258 91.683487
14 87.624611 14.231146 22.918642 -141.083969 -54.436913 45.672482 91.683487
[R_front_hand02_01]
13 89.356956 14.367283 -19.491137 139.980438 51.699215 45.970734 92.579636
14 89.356956 14.367283 -19.491137 141.813004 52.852688 48.289932 92.579636
[R_front_hand03_01]
13 87.286232 -22.307278 -0.143439 0.071045 -0.448771 -63.677063 90.091743
14 87.286232 -22.307278 -0.143439 0.082367 -0.444902 -65.508453 90.091743
[R_front_hand01_02]
13 71.020905 0.000060 0.000119 0.002330 -0.000281 103.760513 71.020905
14 71.020905 0.000060 0.000119 0.002331 -0.000279 103.639610 71.020905
[R_front_hand02_02]
13 71.020844 -0.000030 -0.000119 0.002330 -0.000281 103.760513 71.020836
14 71.020844 -0.000030 -0.000119 0.002331 -0.000279 103.639610 71.020836
[R_front_hand03_02]
13 71.020905 0.000000 0.000030 0.002330 -0.000281 103.760513 71.020905
14 71.020905 0.000000 0.000030 0.002331 -0.000279 103.639610 71.020905
[null_rope01_connect]
13 328.732483 0.000000 -0.000238 -170.837952 -67.205963 173.539948 328.732483
14 328.732483 0.000000 -0.000238 -169.990860 -66.165970 177.213043 328.732483
[Rope1_Seg01]
13 0.000000 0.000000 0.000000 -23.242306 -16.492701 -175.898834 0.000000
14 0.000000 0.000000 0.000000 -37.437714 -27.159185 -158.385880 0.000000
[Rope1_Seg02]
13 139.999863 -0.000179 0.000000 -2.460140 13.960329 -17.301626 139.999863
14 139.999863 -0.000179 0.000000 1.389141 15.884624 -12.801622 139.999863
[Rope1_Seg03]
13 139.999924 0.000060 -0.000060 -2.328997 13.736445 -18.314972 139.999924
14 139.999924 0.000060 -0.000060 -3.338673 22.251993 -22.043142 139.999924
[Rope1_Seg04]
13 139.999924 -0.000060 -0.000119 -0.018360 6.628406 -11.312817 139.999924
14 139.999924 -0.000060 -0.000119 -2.057204 13.930135 -17.582615 139.999924
[Rope1_Seg05]
13 139.999832 0.000119 -0.000060 -1.616963 9.415588 -7.864627 139.999832
14 139.999832 0.000119 -0.000060 -2.150090 10.462678 -6.865015 139.999832
[Rope1_Seg06]
13 139.999954 0.000119 -0.000060 -10.589428 19.800343 -11.405846 139.999954
14 139.999954 0.000119 -0.000060 -11.666159 20.668989 -5.766171 139.999954
[Rope1_Seg07]
13 139.999985 0.000060 0.000000 -27.373325 19.829920 -7.816319 139.999985
14 139.999985 0.000060 0.000000 -32.949684 26.740973 -1.791710 139.999985
[Rope1_Seg09]
13 121.602913 0.000119 -0.000089 -89.793175 -1.359789 0.847147 121.602913
14 121.602913 0.000119 -0.000089 -89.793175 -1.359789 0.847147 121.602913
[L_mid_hand01]
13 103.859421 1.038730 8.195221 109.630608 -42.428204 -14.062105 104.187431
14 103.859421 1.038730 8.195221 110.331215 -44.470776 -15.085362 104.187431
[L_mid_hand02]
13 105.572853 -4.139662 -10.864139 -147.734787 32.524982 -39.820679 106.211075
14 105.572853 -4.139662 -10.864139 -148.937714 33.668659 -42.029243 106.211075
[L_mid_hand03]
13 104.641464 17.579376 -3.913581 -13.849796 12.791806 45.822666 106.179977
14 104.641464 17.579376 -3.913581 -13.360330 13.301838 47.989159 106.179977
[null_rope02_connect]
13 328.732849 0.000179 -0.000119 -128.091476 64.968605 32.844292 328.732849
14 328.732849 0.000179 -0.000119 -115.302185 61.703163 40.364834 328.732849
[Rope2_Seg01]
13 0.000050 0.000107 0.000000 145.158234 -50.167320 -3.492952 0.000118
14 0.000051 0.000103 0.000000 146.725037 -58.341381 0.932205 0.000115
[Rope2_Seg02]
13 139.999741 -0.000060 -0.000119 -16.393204 -1.282756 -21.932564 139.999756
14 139.999741 -0.000060 -0.000119 -10.654529 3.170998 -19.333420 139.999756
[Rope2_Seg03]
13 140.000107 0.000030 0.000000 -17.097857 3.991436 -52.635944 140.000107
14 140.000107 0.000030 0.000000 -10.238687 8.448576 -37.164307 140.000107
[Rope2_Seg04]
13 139.999802 0.000000 -0.000060 -4.636278 32.980766 -9.823626 139.999802
14 139.999802 0.000000 -0.000060 -0.428171 15.332435 -22.480577 139.999802
[Rope2_Seg05]
13 139.999985 -0.000060 0.000119 -3.521227 10.955544 -0.256586 139.999985
14 139.999985 -0.000060 0.000119 -2.537335 14.000124 -2.208928 139.999985
[Rope2_Seg06]
13 139.999893 -0.000030 -0.000119 -1.421838 4.531323 -0.574342 139.999893
14 139.999893 -0.000030 -0.000119 -0.385145 6.511402 -2.705402 139.999893
[Rope2_Seg07]
13 139.999893 0.000060 -0.000060 -0.983837 2.606108 -0.263133 139.999893
14 139.999893 0.000060 -0.000060 -0.094871 3.794703 -1.718642 139.999893
[Rope2_Seg09]
13 121.338966 0.000089 -0.000060 33.793236 -1.359788 -0.847141 121.338966
14 121.338966 0.000089 -0.000060 33.793236 -1.359788 -0.847141 121.338966
[R_mid_hand01]
13 104.680779 11.144459 -10.335981 -35.659065 33.675755 40.429829 105.778534
14 104.680779 11.144459 -10.335981 -36.495327 32.739510 38.894321 105.778534
[R_mid_hand02]
13 104.070427 2.443552 8.231699 69.379761 -45.224785 15.491559 104.424065
14 104.070427 2.443552 8.231699 69.926315 -43.736984 14.713636 104.424065
[R_mid_hand03]
13 106.028137 -11.221827 -5.996406 -170.548004 12.734509 -50.222614 106.788818
14 106.028137 -11.221827 -5.996406 -170.196442 12.469419 -48.616360 106.788818
[spine02]
13 129.756927 0.001550 0.000119 0.538614 -4.023778 -15.474613 129.756927
14 129.756927 0.001550 0.000119 0.539668 -4.023637 -15.504617 129.756927
[spine03]
13 78.614014 0.081528 -4.899006 2.000257 3.776486 18.067289 78.766556
14 78.614014 0.081532 -4.899006 2.000918 3.776135 18.087353 78.766556
[pelvis]
13 169.435242 0.051022 0.000000 -0.070433 -0.177696 17.333202 169.435257
14 169.435242 0.051022 0.000000 -0.070464 -0.177683 17.353209 169.435257
[null_rope03_connect]
13 -1.257226 -2.466202 137.391083 -115.163887 -86.609734 156.391922 137.418976
14 -1.257226 -2.466202 137.391083 -144.602112 -86.609970 -169.509064 137.418976
[null_rope04_connect]
13 -1.259640 -2.480268 -137.844437 -115.163887 -86.609734 156.391922 137.872513
14 -1.259640 -2.480268 -137.844437 -144.602112 -86.609970 -169.509064 137.872513
[Rope3_Seg01]
13 -0.000025 -0.000118 0.000000 13.179094 -9.490458 -57.809528 0.000121
14 -0.000025 -0.000125 0.000000 13.627654 -4.409296 -52.664146 0.000127
[Rope3_Seg02]
13 139.999924 -0.000119 0.000060 12.793286 24.973696 35.172085 139.999924
14 139.999924 -0.000119 0.000060 6.419649 19.775339 32.447258 139.999924
[Rope3_Seg03]
13 139.999924 -0.000119 0.000119 167.112152 28.969210 39.193340 139.999924
14 139.999924 -0.000119 0.000119 -160.559219 19.816948 39.944073 139.999924
[Rope3_Seg04]
13 139.999924 0.000119 0.000000 2.837641 -6.283694 -11.797742 139.999924
14 139.999924 0.000119 0.000000 -14.329051 -14.728282 -7.882806 139.999924
[Rope3_Seg05]
13 139.999924 -0.000238 0.000060 -4.374106 -7.194330 -4.649077 139.999924
14 139.999924 -0.000238 0.000060 -10.898082 -12.754909 -3.216644 139.999924
[Rope3_Seg06]
13 139.999893 -0.000119 -0.000060 -0.913120 -5.010367 -5.024471 139.999893
14 139.999893 -0.000119 -0.000060 -2.096921 -6.411990 -4.573866 139.999893
[Rope3_Seg07]
13 139.999771 0.000060 -0.000119 0.118209 -3.414276 -4.074829 139.999771
14 139.999771 0.000060 -0.000119 -0.545392 -3.983233 -3.344996 139.999771
[Rope3_Seg08]
13 139.999985 -0.000060 0.000000 0.320278 -2.222182 -2.651234 139.999985
14 139.999985 -0.000060 0.000000 -0.004203 -2.412483 -2.071069 139.999985
[Rope3_Seg09]
13 90.185997 -0.000179 -0.000060 89.793228 -1.359877 -0.847183 90.185997
14 90.185997 -0.000179 -0.000060 89.793228 -1.359877 -0.847183 90.185997
[R_rear_hand01]
13 103.366196 -6.073594 -10.757982 -165.364609 20.073744 -42.141060 104.101845
14 103.366196 -6.073594 -10.757982 -164.915863 19.747875 -40.821388 104.101845
[R_rear_hand02]
13 100.509819 12.039542 -7.992327 -30.084066 25.665678 39.802120 101.543350
14 100.509819 12.039542 -7.992327 -30.611040 25.017698 38.577400 101.543350
[R_rear_hand03]
13 101.539970 5.215704 5.435467 82.244080 -42.772614 9.150361 101.819031
14 101.539970 5.215704 5.435467 82.396393 -41.501781 8.918384 101.819031
[Rope4_Seg01]
13 0.000010 0.000038 -0.000114 -78.616608 -32.869377 -140.229202 0.000121
14 0.000010 0.000038 -0.000114 -54.648712 -41.553703 -164.783127 0.000121
[Rope4_Seg02]
13 139.999985 0.000060 0.000119 0.787783 11.586353 4.949855 139.999985
14 139.999985 0.000060 0.000119 -0.589109 13.798549 9.016797 139.999985
[Rope4_Seg03]
13 139.999924 0.000000 -0.000238 1.746382 16.139509 6.897339 139.999924
14 139.999924 0.000000 -0.000238 -4.214806 17.019670 12.016625 139.999924
[Rope4_Seg04]
13 139.999985 0.000000 0.000119 2.481768 18.692596 8.518580 139.999985
14 139.999985 0.000000 0.000119 -30.435251 13.795392 12.926957 139.999985
[Rope4_Seg05]
13 139.999802 -0.000060 -0.000119 5.107630 13.760264 6.085583 139.999802
14 139.999802 -0.000060 -0.000119 -68.568184 2.956458 10.505424 139.999802
[Rope4_Seg06]
13 139.999924 0.000000 0.000060 154.871643 9.547036 1.713329 139.999924
14 139.999924 0.000000 0.000060 -34.005455 -6.362692 6.113966 139.999924
[Rope4_Seg07]
13 139.999802 0.000000 0.000000 0.867377 -10.024089 -4.712803 139.999802
14 139.999802 0.000000 0.000000 -17.992020 -12.250000 3.338033 139.999802
[Rope4_Seg08]
13 139.999924 0.000000 0.000119 -0.908209 -10.381580 -4.809026 139.999924
14 139.999924 0.000000 0.000119 -8.875464 -14.926020 -0.499335 139.999924
[Rope4_Seg09]
13 90.185791 0.000060 0.000060 -135.617828 2.228885 0.850567 90.185791
14 90.185791 0.000060 0.000060 -135.617828 2.228885 0.850567 90.185791
[L_rear_hand01]
13 101.696655 -8.392275 -7.654577 -28.796085 -27.129269 137.298477 102.329041
14 101.696655 -8.392275 -7.654577 -27.588619 -28.361088 134.712097 102.329041
[L_rear_hand02]
13 102.726799 -1.568258 5.773216 81.840157 45.725391 170.277420 102.900848
14 102.726799 -1.568258 5.773216 81.431328 48.300430 169.720108 102.900848
[L_rear_hand03]
13 104.552910 9.721220 -10.420293 -166.442245 -20.805420 -134.771164 105.519653
14 104.552910 9.721220 -10.420293 -167.421646 -21.393099 -132.057724 105.519653
